#Comment line ignore any data following # character 
#Hierarchical Translation and Rotation (.htr) file 
[Header]	
#Header keywords are followed by a single value 
FileType HTR		#Single word string
DataType HTRS		#Translation followed by rotation and scale data
FileVersion 1		#integer
NumSegments 64		#integer
NumFrames 3		#integer
DataFrameRate 30		#integer, data frame rate in this file
EulerRotationOrder ZYX
CalibrationUnits mm
RotationUnits Degrees
GlobalAxisofGravity Y
BoneLengthAxis Y
ScaleFactor 1.00
[SegmentNames&Hierarchy]
#CHILD	PARENT
Pinger_Root GLOBAL
Pelvis Pinger_Root
L_Hip Pelvis
R_Hip Pelvis
Rear_Leg01 Pelvis
Spine1 Pelvis
L_Leg01 L_Hip
L_Leg02 L_Leg01
L_Leg03 L_Leg02
L_Foot L_Leg03
L_Toe1_01 L_Foot
L_Toe2_01 L_Foot
L_Toe3_01 L_Foot
planeAlignerLeft L_Foot
L_Toe1_02 L_Toe1_01
L_Toe1_03 L_Toe1_02
L_Toe2_02 L_Toe2_01
L_Toe2_03 L_Toe2_02
L_Toe3_02 L_Toe3_01
L_Toe3_03 L_Toe3_02
planeLockWeightLeft planeAlignerLeft
R_Leg01 R_Hip
R_Leg02 R_Leg01
R_Leg03 R_Leg02
R_Foot R_Leg03
planeAlignerRight R_Foot
R_Toe1_01 R_Foot
R_Toe2_01 R_Foot
R_Toe3_01 R_Foot
planeLockWeightRight planeAlignerRight
R_Toe1_02 R_Toe1_01
R_Toe1_03 R_Toe1_02
R_Toe2_02 R_Toe2_01
R_Toe2_03 R_Toe2_02
R_Toe3_02 R_Toe3_01
R_Toe3_03 R_Toe3_02
Rear_Leg02 Rear_Leg01
Rear_Leg03 Rear_Leg02
Rear_Leg04 Rear_Leg03
Rear_Foot Rear_Leg04
planeAlignerCenter Rear_Foot
Rear_Toe1_01 Rear_Foot
Rear_Toe2_01 Rear_Foot
Rear_Toe3_01 Rear_Foot
planeLockWeightCenter planeAlignerCenter
Rear_Toe1_02 Rear_Toe1_01
Rear_Toe1_03 Rear_Toe1_02
Rear_Toe2_02 Rear_Toe2_01
Rear_Toe2_03 Rear_Toe2_02
Rear_Toe3_02 Rear_Toe3_01
Rear_Toe3_03 Rear_Toe3_02
Back_Bone Spine1
Head Spine1
Motor_Bone Back_Bone
Ping_Mechanism Back_Bone
BN_LookIK Head
bottomMouth Head
L_Mouth01 Head
L_mouthFront Head
mouthGun Head
R_Mouth01 Head
R_mouthFront Head
TopMouth Head
weapon_bone Head
[BasePosition]
#SegmentName Tx, Ty, Tz, Rx, Ry, Rz, BoneLength
Pinger_Root 0.000000 0.000000 0.000000 -90.000000 0.000000 0.000000 10.000000 
Pelvis 0.000000 0.000000 0.000000 0.000000 0.000000 0.000000 10.000000 
L_Hip 0.000000 0.000000 0.000000 0.000000 0.000000 0.000000 10.000000 
R_Hip 0.000000 0.000000 0.000000 0.000000 0.000000 0.000000 10.000000 
Rear_Leg01 0.000000 0.000000 0.000000 0.000000 0.000000 0.000000 10.000000 
Spine1 0.000000 0.000000 0.000000 0.000000 0.000000 0.000000 10.000000 
L_Leg01 0.000000 0.000000 0.000000 0.000000 0.000000 0.000000 10.000000 
L_Leg02 0.000000 0.000000 0.000000 0.000000 0.000000 0.000000 10.000000 
L_Leg03 0.000000 0.000000 0.000000 0.000000 0.000000 0.000000 10.000000 
L_Foot 0.000000 0.000000 0.000000 0.000000 0.000000 0.000000 10.000000 
L_Toe1_01 0.000000 0.000000 0.000000 0.000000 0.000000 0.000000 10.000000 
L_Toe2_01 0.000000 0.000000 0.000000 0.000000 0.000000 0.000000 10.000000 
L_Toe3_01 0.000000 0.000000 0.000000 0.000000 0.000000 0.000000 10.000000 
planeAlignerLeft 0.000000 0.000000 0.000000 0.000000 0.000000 0.000000 10.000000 
L_Toe1_02 0.000000 0.000000 0.000000 0.000000 0.000000 0.000000 10.000000 
L_Toe1_03 0.000000 0.000000 0.000000 0.000000 0.000000 0.000000 10.000000 
L_Toe2_02 0.000000 0.000000 0.000000 0.000000 0.000000 0.000000 10.000000 
L_Toe2_03 0.000000 0.000000 0.000000 0.000000 0.000000 0.000000 10.000000 
L_Toe3_02 0.000000 0.000000 0.000000 0.000000 0.000000 0.000000 10.000000 
L_Toe3_03 0.000000 0.000000 0.000000 0.000000 0.000000 0.000000 10.000000 
planeLockWeightLeft 0.000000 0.000000 0.000000 0.000000 0.000000 0.000000 10.000000 
R_Leg01 0.000000 0.000000 0.000000 0.000000 0.000000 0.000000 10.000000 
R_Leg02 0.000000 0.000000 0.000000 0.000000 0.000000 0.000000 10.000000 
R_Leg03 0.000000 0.000000 0.000000 0.000000 0.000000 0.000000 10.000000 
R_Foot 0.000000 0.000000 0.000000 0.000000 0.000000 0.000000 10.000000 
planeAlignerRight 0.000000 0.000000 0.000000 0.000000 0.000000 0.000000 10.000000 
R_Toe1_01 0.000000 0.000000 0.000000 0.000000 0.000000 0.000000 10.000000 
R_Toe2_01 0.000000 0.000000 0.000000 0.000000 0.000000 0.000000 10.000000 
R_Toe3_01 0.000000 0.000000 0.000000 0.000000 0.000000 0.000000 10.000000 
planeLockWeightRight 0.000000 0.000000 0.000000 0.000000 0.000000 0.000000 10.000000 
R_Toe1_02 0.000000 0.000000 0.000000 0.000000 0.000000 0.000000 10.000000 
R_Toe1_03 0.000000 0.000000 0.000000 0.000000 0.000000 0.000000 10.000000 
R_Toe2_02 0.000000 0.000000 0.000000 0.000000 0.000000 0.000000 10.000000 
R_Toe2_03 0.000000 0.000000 0.000000 0.000000 0.000000 0.000000 10.000000 
R_Toe3_02 0.000000 0.000000 0.000000 0.000000 0.000000 0.000000 10.000000 
R_Toe3_03 0.000000 0.000000 0.000000 0.000000 0.000000 0.000000 10.000000 
Rear_Leg02 0.000000 0.000000 0.000000 0.000000 0.000000 0.000000 10.000000 
Rear_Leg03 0.000000 0.000000 0.000000 0.000000 0.000000 0.000000 10.000000 
Rear_Leg04 0.000000 0.000000 0.000000 0.000000 0.000000 0.000000 10.000000 
Rear_Foot 0.000000 0.000000 0.000000 0.000000 0.000000 0.000000 10.000000 
planeAlignerCenter 0.000000 0.000000 0.000000 0.000000 0.000000 0.000000 10.000000 
Rear_Toe1_01 0.000000 0.000000 0.000000 0.000000 0.000000 0.000000 10.000000 
Rear_Toe2_01 0.000000 0.000000 0.000000 0.000000 0.000000 0.000000 10.000000 
Rear_Toe3_01 0.000000 0.000000 0.000000 0.000000 0.000000 0.000000 10.000000 
planeLockWeightCenter 0.000000 0.000000 0.000000 0.000000 0.000000 0.000000 10.000000 
Rear_Toe1_02 0.000000 0.000000 0.000000 0.000000 0.000000 0.000000 10.000000 
Rear_Toe1_03 0.000000 0.000000 0.000000 0.000000 0.000000 0.000000 10.000000 
Rear_Toe2_02 0.000000 0.000000 0.000000 0.000000 0.000000 0.000000 10.000000 
Rear_Toe2_03 0.000000 0.000000 0.000000 0.000000 0.000000 0.000000 10.000000 
Rear_Toe3_02 0.000000 0.000000 0.000000 0.000000 0.000000 0.000000 10.000000 
Rear_Toe3_03 0.000000 0.000000 0.000000 0.000000 0.000000 0.000000 10.000000 
Back_Bone 0.000000 0.000000 0.000000 0.000000 0.000000 0.000000 10.000000 
Head 0.000000 0.000000 0.000000 0.000000 0.000000 0.000000 10.000000 
Motor_Bone 0.000000 0.000000 0.000000 0.000000 0.000000 0.000000 10.000000 
Ping_Mechanism 0.000000 0.000000 0.000000 0.000000 0.000000 0.000000 10.000000 
BN_LookIK 0.000000 0.000000 0.000000 0.000000 0.000000 0.000000 10.000000 
bottomMouth 0.000000 0.000000 0.000000 0.000000 0.000000 0.000000 10.000000 
L_Mouth01 0.000000 0.000000 0.000000 0.000000 0.000000 0.000000 10.000000 
L_mouthFront 0.000000 0.000000 0.000000 0.000000 0.000000 0.000000 10.000000 
mouthGun 0.000000 0.000000 0.000000 0.000000 0.000000 0.000000 10.000000 
R_Mouth01 0.000000 0.000000 0.000000 0.000000 0.000000 0.000000 10.000000 
R_mouthFront 0.000000 0.000000 0.000000 0.000000 0.000000 0.000000 10.000000 
TopMouth 0.000000 0.000000 0.000000 0.000000 0.000000 0.000000 10.000000 
weapon_bone 0.000000 0.000000 0.000000 0.000000 0.000000 0.000000 10.000000 
#Beginning of Data. Separated by tabs
#Fr	Tx	Ty	Tz	Rx	Ry	Rz	SF
[Pinger_Root]
56 2500.000000 0.000220 0.000000 -0.000075 -0.000000 -0.000020 2500.000000
57 2500.000000 0.000220 0.000000 -0.000075 -0.000000 -0.000020 2500.000000
58 2500.000000 0.000220 0.000000 -0.000075 -0.000000 -0.000020 2500.000000
[Pelvis]
56 353.248322 664.330505 4053.413330 -74.471542 -74.915268 63.801460 4122.654297
57 336.734741 621.720886 4052.426270 -72.571899 -74.541008 62.318871 4113.646484
58 321.356049 580.583252 4056.556641 -72.239250 -73.782188 62.370090 4110.474121
[L_Hip]
56 5.766392 125.831482 872.656799 162.558304 -68.693604 110.049965 881.701050
57 5.766392 125.831482 872.656799 162.013840 -67.404350 111.038612 881.701050
58 5.766392 125.831482 872.656799 161.551971 -66.111160 111.946938 881.701050
[R_Hip]
56 5.765438 125.836372 -872.654907 30.125414 71.009445 117.476456 881.699829
57 5.765438 125.836372 -872.654907 31.122026 69.853363 118.425346 881.699829
58 5.765438 125.836372 -872.654907 32.014568 68.691231 119.269928 881.699829
[Rear_Leg01]
56 -192.298416 -925.602966 -0.001907 170.530960 8.291989 -146.422226 945.367432
57 -192.298416 -925.602966 -0.001907 169.343552 8.010965 -154.887939 945.367432
58 -192.298416 -925.602966 -0.001907 168.915405 6.769231 -164.141220 945.367432
[Spine1]
56 290.604584 5.007505 0.000477 6.805223 -3.677432 11.581521 290.647736
57 290.604584 5.007505 0.000477 6.369750 -4.263422 11.218644 290.647736
58 290.604584 5.007505 0.000477 6.065903 -4.603074 10.367978 290.647736
[L_Leg01]
56 761.932007 -0.002384 -0.069261 10.051070 -37.515213 -5.793651 761.932068
57 761.932007 -0.002384 -0.069261 9.327163 -37.180771 -5.606670 761.932068
58 761.932007 -0.002384 -0.069261 8.234936 -36.833874 -4.672766 761.932068
[L_Leg02]
56 1441.140503 -0.000954 -0.000715 1.272768 -0.260501 -129.712280 1441.140503
57 1441.140503 -0.000954 -0.000715 1.214823 -0.242728 -128.739258 1441.140503
58 1441.140503 -0.000954 -0.000715 1.157186 -0.223973 -127.766205 1441.140503
[L_Leg03]
56 1686.963989 -0.000715 -0.000954 0.009358 -0.004405 107.688637 1686.963989
57 1686.963989 -0.000715 -0.000954 0.007952 -0.003917 108.027740 1686.963989
58 1686.963989 -0.000715 -0.000954 0.006549 -0.003420 108.366852 1686.963989
[L_Foot]
56 3041.570068 -30.715107 11.297464 -7.379414 7.786497 45.943916 3041.746094
57 3041.570068 -30.715107 11.297464 -6.556867 8.049534 45.625278 3041.746094
58 3041.570068 -30.715107 11.297464 -5.735440 8.317018 45.310352 3041.746094
[L_Toe1_01]
56 -188.216690 -224.732346 -21.137953 90.875023 -4.069196 -165.773224 293.899567
57 -188.216690 -224.732346 -21.137953 91.064384 -4.342654 -166.747971 293.899567
58 -188.216690 -224.732346 -21.137953 91.258415 -4.612795 -167.723724 293.899567
[L_Toe2_01]
56 200.746536 -219.926590 148.838394 -83.990143 -18.601807 -41.769505 332.896027
57 200.746536 -219.926590 148.838394 -84.377670 -19.093740 -42.238392 332.896027
58 200.746536 -219.926590 148.838394 -84.762115 -19.588678 -42.705189 332.896027
[L_Toe3_01]
56 188.832520 -219.859131 -191.078659 -104.605949 25.139837 -50.122345 347.140900
57 188.832520 -219.859131 -191.078659 -104.254791 24.254538 -50.694019 347.140900
58 188.832520 -219.859131 -191.078659 -103.896553 23.372852 -51.267471 347.140900
[planeAlignerLeft]
56 46.587677 -526.905884 13.356582 169.683029 -84.920250 96.272827 529.130066
57 52.364956 -527.379822 20.785172 169.508560 -84.470642 96.090019 530.380554
58 58.142216 -527.853760 28.213730 169.333466 -84.021088 95.907692 531.795227
[L_Toe1_02]
56 413.761139 0.000477 0.000000 0.001385 -25.803165 0.001385 413.761139
57 413.761139 0.000477 0.000000 0.001385 -25.816704 0.001385 413.761139
58 413.761139 0.000477 0.000000 0.001385 -25.830240 0.001385 413.761139
[L_Toe1_03]
56 464.317322 0.000358 -0.000089 0.003414 49.788666 0.003414 464.317322
57 464.317322 0.000358 -0.000089 0.003586 51.781624 0.003586 464.317322
58 464.317322 0.000358 -0.000089 0.003775 53.774544 0.003775 464.317322
[L_Toe2_02]
56 342.235809 -0.000477 0.000238 0.001182 -76.644394 0.001182 342.235809
57 342.235809 -0.000477 0.000238 0.001182 -76.293594 0.001182 342.235809
58 342.235809 -0.000477 0.000238 0.001183 -75.942833 0.001183 342.235809
[L_Toe2_03]
56 420.210846 -0.000715 0.000000 -179.993744 81.770348 -179.990234 420.210846
57 420.210846 -0.000715 0.000000 -179.992004 83.237579 -179.988510 420.210846
58 420.210846 -0.000715 0.000000 -179.989304 84.704468 -179.985809 420.210846
[L_Toe3_02]
56 329.270111 0.000954 0.000000 0.003573 -83.102516 0.003573 329.270111
57 329.270111 0.000954 0.000000 0.003388 -83.004028 0.003388 329.270111
58 329.270111 0.000954 0.000000 0.003204 -82.905441 0.003204 329.270111
[L_Toe3_03]
56 439.137451 -0.001907 0.000954 179.991013 64.906273 179.998184 439.137451
57 439.137451 -0.001907 0.000954 179.990875 65.599731 179.998032 439.137451
58 439.137451 -0.001907 0.000954 179.990738 66.206917 179.997879 439.137451
[planeLockWeightLeft]
56 1000.000122 0.000000 -0.000237 -0.011826 -0.004376 0.005620 1000.000122
57 1000.000122 0.000000 -0.000242 -0.011826 -0.004376 0.005620 1000.000122
58 1000.000122 0.000000 -0.000246 -0.011826 -0.004376 0.005620 1000.000122
[R_Leg01]
56 761.455627 -0.001907 -0.000358 129.214264 -38.213787 42.681599 761.455688
57 761.455627 -0.001907 -0.000358 130.876389 -37.638905 39.670498 761.455688
58 761.455627 -0.001907 -0.000358 132.485016 -36.996479 36.705769 761.455688
[R_Leg02]
56 1441.140625 0.000000 -0.000238 -2.446187 -1.117270 -135.487946 1441.140625
57 1441.140625 0.000000 -0.000238 -2.470980 -1.144153 -135.465424 1441.140625
58 1441.140625 0.000000 -0.000238 -2.453626 -1.123014 -135.070480 1441.140625
[R_Leg03]
56 1686.963989 0.000954 0.001431 0.126384 -0.080569 144.325195 1686.963989
57 1686.963989 0.000954 0.001431 0.126463 -0.080446 144.213470 1686.963989
58 1686.963989 0.000954 0.001431 0.126541 -0.080322 144.101730 1686.963989
[R_Foot]
56 3041.560059 -30.531288 -11.204481 -5.456603 -9.182771 48.487850 3041.734131
57 3041.560059 -30.531288 -11.204481 -6.348708 -9.568166 48.631027 3041.734131
58 3041.560059 -30.531288 -11.204481 -7.242809 -9.951304 48.780434 3041.734131
[planeAlignerRight]
56 -81.621902 -677.880432 -202.898117 -36.777313 -78.340645 -60.350937 712.286194
57 -91.298264 -659.924927 -225.449982 -36.787937 -76.969307 -61.117073 703.323486
58 -99.445091 -641.847778 -245.061508 -36.871212 -75.598625 -61.812393 694.199585
[R_Toe1_01]
56 -188.383347 -224.864899 21.052242 81.044182 -1.554784 -163.595703 294.101532
57 -188.383347 -224.864899 21.052242 79.842598 -1.365256 -165.412186 294.101532
58 -188.383347 -224.864899 21.052242 78.636116 -1.213983 -167.231430 294.101532
[R_Toe2_01]
56 200.637817 -220.002121 -148.787384 -97.796532 18.699379 -57.850391 332.857574
57 200.637817 -220.002121 -148.787384 -97.464813 21.038376 -58.113777 332.857574
58 200.637817 -220.002121 -148.787384 -97.139053 23.379751 -58.366917 332.857574
[R_Toe3_01]
56 188.606735 -220.092957 191.126343 -66.336494 -16.924219 -72.772942 347.192566
57 188.606735 -220.092957 191.126343 -67.164246 -15.134098 -72.958786 347.192566
58 188.606735 -220.092957 191.126343 -67.990952 -13.347849 -73.169586 347.192566
[planeLockWeightRight]
56 999.999878 0.000000 -0.000217 -0.011823 -0.004379 -0.000027 999.999878
57 999.999878 0.000000 -0.000212 -0.011823 -0.004379 -0.000027 999.999878
58 999.999878 0.000000 -0.000207 -0.011823 -0.004379 -0.000027 999.999878
[R_Toe1_02]
56 413.762085 0.000477 -0.000119 0.001389 -25.289391 0.001389 413.762085
57 413.762085 0.000477 -0.000119 0.001390 -25.200848 0.001390 413.762085
58 413.762085 0.000477 -0.000119 0.001391 -25.112307 0.001391 413.762085
[R_Toe1_03]
56 464.317810 0.000000 0.001088 0.005507 65.387741 0.005507 464.317810
57 464.317810 0.000000 0.001088 0.005775 66.549522 0.005775 464.317810
58 464.317810 0.000000 0.001088 0.005952 67.253838 0.005952 464.317810
[R_Toe2_02]
56 342.234741 -0.000954 0.000238 0.001201 -65.528046 0.001201 342.234741
57 342.234741 -0.000954 0.000238 0.001200 -65.936287 0.001200 342.234741
58 342.234741 -0.000954 0.000238 0.001199 -66.344513 0.001199 342.234741
[R_Toe2_03]
56 420.210846 0.000715 -0.000268 -0.005151 70.401123 -0.001603 420.210846
57 420.210846 0.000715 -0.000268 -0.005306 71.281166 -0.001762 420.210846
58 420.210846 0.000715 -0.000268 -0.005477 72.161125 -0.001937 420.210846
[R_Toe3_02]
56 329.270355 -0.000477 -0.000954 0.000600 -69.722664 0.000600 329.270355
57 329.270355 -0.000477 -0.000954 0.001190 -70.895332 0.001190 329.270355
58 329.270355 -0.000477 -0.000954 0.001189 -71.688484 0.001189 329.270355
[R_Toe3_03]
56 439.137939 0.000238 0.001431 0.007999 73.113991 0.007999 439.137939
57 439.137939 0.000238 0.001431 0.009159 75.276520 0.009159 439.137939
58 439.137939 0.000238 0.001431 0.010447 77.097893 0.010447 439.137939
[Rear_Leg02]
56 1162.777710 -0.029802 0.005960 11.487338 -9.141154 -131.287689 1162.777710
57 1162.777710 -0.029802 0.005960 8.425976 -10.792578 -129.347076 1162.777710
58 1162.777710 -0.029802 0.005960 6.232869 -10.890708 -131.476532 1162.777710
[Rear_Leg03]
56 607.192505 -0.013351 -0.073195 0.010087 -0.005866 76.713898 607.192505
57 607.192505 -0.013351 -0.073195 0.010256 -0.005565 73.322128 607.192505
58 607.192505 -0.013351 -0.073195 0.010376 -0.005343 70.848732 607.192505
[Rear_Leg04]
56 995.874512 -0.020504 -0.011921 -0.043122 -0.014527 88.722549 995.874573
57 995.874512 -0.020504 -0.011921 -0.041866 -0.014704 78.657188 995.874573
58 995.874512 -0.020504 -0.011921 -0.041100 -0.016886 72.692207 995.874573
[Rear_Foot]
56 3096.176270 -0.067472 -0.041425 -131.761337 72.193130 49.129124 3096.176270
57 3096.176270 -0.067472 -0.041425 -138.989487 72.787369 50.981712 3096.176270
58 3096.176270 -0.067472 -0.041425 -140.232819 74.082695 51.559582 3096.176270
[planeAlignerCenter]
56 7.103899 171.478516 -1021.341919 5.119322 -0.001585 179.998276 1035.661499
57 6.245750 152.231964 -854.214661 5.504368 -0.001579 179.998260 867.695923
58 2.438928 85.222382 -705.897095 5.889431 -0.001573 179.998260 711.027100
[Rear_Toe1_01]
56 0.653352 83.966492 -371.173737 0.041989 46.367901 89.985466 380.553192
57 0.653352 83.966492 -371.173737 0.087352 36.181709 90.068382 380.553192
58 0.653352 83.966492 -371.173737 0.173120 28.836369 90.284744 380.553192
[Rear_Toe2_01]
56 178.200760 -294.826019 -362.060547 17.974401 65.451729 -45.620369 499.765686
57 178.200760 -294.826019 -362.060547 7.820961 50.303303 -53.219208 499.765686
58 178.200760 -294.826019 -362.060547 0.107183 38.961384 -60.415920 499.765686
[Rear_Toe3_01]
56 -153.359680 -308.780914 -362.060852 -10.852842 65.366020 -125.420662 499.952881
57 -153.359680 -308.780914 -362.060852 -4.565913 49.946316 -120.555885 499.952881
58 -153.359680 -308.780914 -362.060852 -0.147014 38.728035 -116.125923 499.952881
[planeLockWeightCenter]
56 740.728149 0.000610 -0.000114 -0.011814 -0.004373 -0.000015 740.728149
57 999.993347 0.000610 -0.000114 -0.011814 -0.004373 -0.000015 999.993286
58 1000.000244 0.000598 -0.000112 -0.011814 -0.004373 -0.000015 1000.000244
[Rear_Toe1_02]
56 379.707825 0.194073 0.000477 -0.000324 -32.793892 0.006980 379.707855
57 379.707825 0.194073 0.000477 0.001333 -33.438808 0.001333 379.707855
58 379.707825 0.194073 0.000477 -0.001506 -33.477566 0.002186 379.707855
[Rear_Toe1_03]
56 500.129700 0.165701 0.000119 -0.003965 59.005192 -0.000337 500.129761
57 500.129700 0.165701 0.000119 -0.004651 66.863144 -0.001081 500.129761
58 500.129700 0.165701 0.000119 -0.004672 67.041245 -0.001104 500.129761
[Rear_Toe2_02]
56 340.494507 0.000238 -0.000954 0.001174 -87.501816 0.001174 340.494507
57 340.494507 0.000238 -0.000954 0.000000 -89.475113 0.002347 340.494507
58 340.494507 0.000238 -0.000954 0.001176 -82.998566 0.001176 340.494507
[Rear_Toe2_03]
56 433.103577 0.000000 0.000238 -179.993988 74.472984 -179.997513 433.103546
57 433.103577 0.000000 0.000238 -179.995178 68.243942 -179.998734 433.103546
58 433.103577 0.000000 0.000238 179.966797 85.948265 179.966797 433.103546
[Rear_Toe3_02]
56 340.494141 -0.000358 -0.000477 0.001174 -87.522430 0.001174 340.494171
57 340.494141 -0.000358 -0.000477 0.001174 -89.128448 0.001174 340.494171
58 340.494141 -0.000358 -0.000477 0.001177 -81.625786 0.001177 340.494171
[Rear_Toe3_03]
56 433.103577 0.001431 -0.000238 -179.997528 74.417084 -179.994003 433.103546
57 433.103577 0.001431 -0.000238 -179.998550 69.491150 -179.994995 433.103546
58 433.103577 0.001431 -0.000238 -179.933441 89.035515 -179.929947 433.103546
[Back_Bone]
56 1312.175781 -701.934692 0.000954 1.010119 -0.210882 -86.768456 1488.125488
57 1312.175781 -701.934692 0.000954 1.203319 -0.534389 -87.263252 1488.125488
58 1312.175781 -701.934692 0.000954 1.399313 -0.856203 -87.759186 1488.125488
[Head]
56 1406.159424 809.709290 0.001431 1.647626 -7.366919 6.423224 1622.625488
57 1406.159424 809.709290 0.001431 1.542429 -7.025761 6.513401 1622.625488
58 1406.159424 809.709290 0.001431 1.437848 -6.684436 6.602878 1622.625488
[Motor_Bone]
56 1158.364380 -417.834747 0.000477 2.270533 -1.149501 -107.133369 1231.419434
57 1158.364380 -417.834747 0.000477 1.114836 -1.132542 -107.122055 1231.419434
58 1158.364380 -417.834747 0.000477 -1.034432 -1.094877 -107.077393 1231.419434
[Ping_Mechanism]
56 1282.433105 -458.651001 29.618446 0.000103 -0.000053 82.120995 1362.304199
57 1282.170410 -457.317841 32.474251 0.000103 -0.000053 82.120995 1361.673706
58 1286.619629 -457.195343 33.410988 0.000103 -0.000053 82.120995 1365.845581
[BN_LookIK]
56 193.241119 1380.371704 -0.002861 0.000000 89.965736 -31.038179 1393.832153
57 193.241119 1380.371704 -0.002861 0.000000 89.965736 -31.038179 1393.832153
58 193.241119 1380.371704 -0.002861 0.000000 89.965736 -31.038179 1393.832153
[bottomMouth]
56 -435.092926 615.759399 -0.000954 -0.000022 0.000016 73.527184 753.966492
57 -435.092926 615.759399 -0.000954 -0.000022 0.000016 73.527184 753.966492
58 -435.092926 615.759399 -0.000954 -0.000022 0.000016 73.527184 753.966492
[L_Mouth01]
56 554.440979 7.658243 838.222046 150.204178 23.759130 109.605339 1005.027161
57 554.440979 7.658243 838.222046 150.204178 23.759130 109.605339 1005.027161
58 554.440979 7.658243 838.222046 150.204178 23.759130 109.605339 1005.027161
[L_mouthFront]
56 551.629089 934.514771 339.150421 0.000081 2.804060 79.119301 1136.941284
57 551.629089 934.514771 339.150421 0.000081 2.804060 79.119301 1136.941284
58 551.629089 934.514771 339.150421 0.000081 2.804060 79.119301 1136.941284
[mouthGun]
56 55.332661 1627.420898 0.000000 0.000023 0.000009 -11.038128 1628.361328
57 55.332661 1627.420898 0.000000 0.000023 0.000009 -11.038128 1628.361328
58 55.332661 1627.420898 0.000000 0.000023 0.000009 -11.038128 1628.361328
[R_Mouth01]
56 554.442383 7.659197 -838.223938 29.795891 -23.759109 109.605331 1005.029541
57 554.442383 7.659197 -838.223938 29.795891 -23.759109 109.605331 1005.029541
58 554.442383 7.659197 -838.223938 29.795891 -23.759109 109.605331 1005.029541
[R_mouthFront]
56 551.629089 934.514282 -339.151367 0.000029 -2.803930 79.119133 1136.941162
57 551.629089 934.514282 -339.151367 0.000029 -2.803930 79.119133 1136.941162
58 551.629089 934.514282 -339.151367 0.000029 -2.803930 79.119133 1136.941162
[TopMouth]
56 461.269867 -56.106091 -0.008583 -0.000059 -0.000268 92.025169 464.669525
57 461.269867 -56.106091 -0.008583 -0.000059 -0.000268 92.025169 464.669525
58 461.269867 -56.106091 -0.008583 -0.000059 -0.000268 92.025169 464.669525
[weapon_bone]
56 -987.239868 1448.372803 0.001431 0.000000 89.965736 -31.038221 1752.833740
57 -987.239868 1448.372803 0.001431 0.000000 89.965736 -31.038221 1752.833740
58 -987.239868 1448.372803 0.001431 0.000000 89.965736 -31.038221 1752.833740
